<svg xmlns="http://www.w3.org/2000/svg" xmlns:xlink="http://www.w3.org/1999/xlink" width="1080" zoomAndPan="magnify" viewBox="0 0 810 809.999993" height="1080" preserveAspectRatio="xMidYMid meet" version="1.0"><defs><clipPath id="b7092ed16b"><path d="M 8.222656 8.222656 L 801.777344 8.222656 L 801.777344 801.777344 L 8.222656 801.777344 Z M 8.222656 8.222656 " clip-rule="nonzero"/></clipPath><clipPath id="09c811a457"><path d="M 46.472656 8.222656 L 763.527344 8.222656 C 773.671875 8.222656 783.402344 12.25 790.574219 19.425781 C 797.75 26.597656 801.777344 36.328125 801.777344 46.472656 L 801.777344 763.527344 C 801.777344 773.671875 797.75 783.402344 790.574219 790.574219 C 783.402344 797.75 773.671875 801.777344 763.527344 801.777344 L 46.472656 801.777344 C 36.328125 801.777344 26.597656 797.75 19.425781 790.574219 C 12.25 783.402344 8.222656 773.671875 8.222656 763.527344 L 8.222656 46.472656 C 8.222656 36.328125 12.25 26.597656 19.425781 19.425781 C 26.597656 12.25 36.328125 8.222656 46.472656 8.222656 Z M 46.472656 8.222656 " clip-rule="nonzero"/></clipPath></defs><g clip-path="url(#b7092ed16b)"><g clip-path="url(#09c811a457)"><path fill="#d7b8e2" d="M 8.222656 8.222656 L 801.777344 8.222656 L 801.777344 801.777344 L 8.222656 801.777344 Z M 8.222656 8.222656 " fill-opacity="1" fill-rule="nonzero"/></g></g></svg>