<svg xmlns="http://www.w3.org/2000/svg" xmlns:xlink="http://www.w3.org/1999/xlink" width="1080" zoomAndPan="magnify" viewBox="0 0 810 809.999993" height="1080" preserveAspectRatio="xMidYMid meet" version="1.0"><defs><clipPath id="5912c9524e"><path d="M 9 191 L 801 191 L 801 618.304688 L 9 618.304688 Z M 9 191 " clip-rule="nonzero"/></clipPath><clipPath id="4860f6fb32"><path d="M 47.839844 191.695312 L 762.160156 191.695312 C 772.304688 191.695312 782.03125 195.726562 789.207031 202.898438 C 796.378906 210.074219 800.410156 219.800781 800.410156 229.945312 L 800.410156 580.054688 C 800.410156 590.199219 796.378906 599.925781 789.207031 607.101562 C 782.03125 614.273438 772.304688 618.304688 762.160156 618.304688 L 47.839844 618.304688 C 37.695312 618.304688 27.96875 614.273438 20.792969 607.101562 C 13.621094 599.925781 9.589844 590.199219 9.589844 580.054688 L 9.589844 229.945312 C 9.589844 219.800781 13.621094 210.074219 20.792969 202.898438 C 27.96875 195.726562 37.695312 191.695312 47.839844 191.695312 Z M 47.839844 191.695312 " clip-rule="nonzero"/></clipPath></defs><g clip-path="url(#5912c9524e)"><g clip-path="url(#4860f6fb32)"><path fill="#add38b" d="M 9.589844 191.695312 L 801.144531 191.695312 L 801.144531 618.304688 L 9.589844 618.304688 Z M 9.589844 191.695312 " fill-opacity="1" fill-rule="nonzero"/></g></g></svg>