<svg xmlns="http://www.w3.org/2000/svg" xmlns:xlink="http://www.w3.org/1999/xlink" width="1080" zoomAndPan="magnify" viewBox="0 0 810 809.999993" height="1080" preserveAspectRatio="xMidYMid meet" version="1.0"><defs><clipPath id="98d2368a6b"><path d="M 191.691406 9 L 619 9 L 619 801 L 191.691406 801 Z M 191.691406 9 " clip-rule="nonzero"/></clipPath><clipPath id="d1a5155fed"><path d="M 618.296875 47.835938 L 618.296875 762.15625 C 618.296875 772.300781 614.269531 782.027344 607.09375 789.203125 C 599.921875 796.375 590.191406 800.40625 580.046875 800.40625 L 229.941406 800.40625 C 219.796875 800.40625 210.070312 796.375 202.894531 789.203125 C 195.722656 782.027344 191.691406 772.300781 191.691406 762.15625 L 191.691406 47.835938 C 191.691406 37.691406 195.722656 27.964844 202.894531 20.789062 C 210.070312 13.617188 219.796875 9.585938 229.941406 9.585938 L 580.046875 9.585938 C 590.191406 9.585938 599.921875 13.617188 607.09375 20.789062 C 614.269531 27.964844 618.296875 37.691406 618.296875 47.835938 Z M 618.296875 47.835938 " clip-rule="nonzero"/></clipPath></defs><g clip-path="url(#98d2368a6b)"><g clip-path="url(#d1a5155fed)"><path fill="#bebcd9" d="M 618.296875 9.585938 L 618.296875 801.140625 L 191.691406 801.140625 L 191.691406 9.585938 Z M 618.296875 9.585938 " fill-opacity="1" fill-rule="nonzero"/></g></g></svg>