<svg id="Layer_1" data-name="Layer 1" xmlns="http://www.w3.org/2000/svg" viewBox="0 0 373 109"><defs><style>.cls-1{isolation:isolate;}.cls-2{fill:#5664ca;}.cls-3{fill:none;}</style></defs><title>logo</title><g class="cls-1"><path class="cls-2" d="M65.4,59.1l1.68-4A19,19,0,0,1,68,53c0-.12.12-.36.12-.48l5.28-11.16c-8.76,2.4-14,6.12-14,10a2.66,2.66,0,0,0,2.16,2.64l1.68.72A1.73,1.73,0,0,1,64,56.34c0,1.92-1.56,4.2-4.32,7a24,24,0,0,1-12.48,6.36c-.6,0-1.32.12-2.16.12-7.8,0-13.92-5.64-13.92-13,0-10.68,9.24-20,24.12-24.36,6.84-2,14.4-2.88,24.84-2.88,8-10.92,17.4-16.32,28-16.32,5.64,0,9.72,2.88,9.72,7.08v.36c-.12,1.92-1.2,3.72-3.12,5.4a10.54,10.54,0,0,1-6.24,2.52H108c-1.32,0-1.56-.24-2-1.32l-.36-1.2c-.36-1.32-1.08-1.8-2.64-1.8a9.63,9.63,0,0,0-3.6.72,18,18,0,0,0-7.2,5.64c13.08,2,20.28,8.16,20.28,16.8,0,7.56-4.44,12.36-13.92,15.12,8.64,1.8,12.72,6.84,12.72,16a31,31,0,0,1-8.16,21c-5.4,6.12-11.52,9.24-18.36,9.24-8.52,0-14.16-5-14.16-12.72a14.56,14.56,0,0,1,.12-2.16c.6-6.6,4.08-13.2,7.44-14.64a2.16,2.16,0,0,1,1.44-.36c1.08,0,1.44-.12,1.8,1.2,0,.48.24,1.08.36,1.92a3.39,3.39,0,0,0,2.64,2.28c.12,0,.48,0,.6-.12,2.4-.48,4.8-4,4.92-7.32V76.5c0-5.4-3.6-8.16-11.16-8.16H76.8c-.84,2.4-1.56,5-2.4,7.44a181.34,181.34,0,0,1-7.92,18.84C58.2,111.78,43.68,121.74,27,121.74c-7.56,0-13.8-2.28-18.84-7A22.4,22.4,0,0,1,.6,97.62Q.6,86.28,10,78.18A33.65,33.65,0,0,1,32.52,70c5.16,0,7.32,1.08,7.32,3.6v1c-.12.6-.72,1.2-2.28,3.6a3.94,3.94,0,0,0-.72,2.52c0,2.52,3.24,5,7,5a8.07,8.07,0,0,0,2.88-.48,16.82,16.82,0,0,0,8.76-6.12,59.88,59.88,0,0,0,6.6-12l1.68-4Zm14.52-.84c7.08,0,12.36-4.8,12.36-10.68,0-3.48-2.16-5.76-6.36-6.6-2.28,3.72-4,7.92-5.76,14-.36,1.08-.48,2.16-.84,3.24Z" transform="translate(0 -13.02)"/><path class="cls-2" d="M158.64,79.86a26.9,26.9,0,0,1-8.28,19.92,27.88,27.88,0,0,1-20.28,8.16c-5.76,0-10.56-1.8-14.28-5.4s-5.52-8.16-5.52-13.8a26.57,26.57,0,0,1,8.4-19.92,28,28,0,0,1,20.4-8.28C151,60.54,158.64,68.34,158.64,79.86Zm-27.84.6c0,3,1.68,5,4.08,5,3.36,0,6.48-3.84,6.48-8.16,0-2.88-1.68-4.92-4.2-4.92C133.92,72.42,130.8,76.26,130.8,80.46Z" transform="translate(0 -13.02)"/><path class="cls-2" d="M155.76,109.5l7.56-34.2a31.6,31.6,0,0,0,.6-4.56c0-1.8-.72-2.88-2.64-3.84,6.12-4.68,11.16-6.72,16.08-6.72,4.68,0,6.84,2,7.2,6.72,5.28-4.68,10.8-6.84,16.44-6.84,6.36,0,10.8,4,10.8,9.72a22,22,0,0,1-.24,2.52,2.82,2.82,0,0,1-.24,1l-3.48,15a16.6,16.6,0,0,0-.6,3.36c-.12,1.8,1.44,3.24,3.72,3.24a10.1,10.1,0,0,0,2.16-.36,15.34,15.34,0,0,1,3.12-.84c1.08,0,1.8.84,1.8,2.16,0,2-2.28,4.8-6.12,7.56a24.87,24.87,0,0,1-11.88,4.2,11.64,11.64,0,0,1-2,.12c-6.84,0-11-3.84-11-9.72,0-.48.12-1.08.12-1.68a1.4,1.4,0,0,0,.24-.84L190,82.74c0-.12.12-.48.12-.6a17.92,17.92,0,0,0,.24-2A3,3,0,0,0,187,77c-3,0-5.4,2.64-6.48,7.32l-3.24,14.4c-1.08,4.92-4.44,8-8.64,8h-5a10.54,10.54,0,0,0-6.12,1.44l-1.68,1.2Z" transform="translate(0 -13.02)"/><path class="cls-2" d="M235.68,80.94c0,6.72,4.08,11,10.68,11a16.11,16.11,0,0,0,2.52-.12c1.44-.12,2.88-.84,7.32-2.88l1.32-.48a15.38,15.38,0,0,1,2-.24c1.92,0,3,1.08,3,3.12,0,2.4-1.92,4.92-6.11,8.64a37.46,37.46,0,0,1-12.84,7.2,25.16,25.16,0,0,1-7.8,1.2,21.8,21.8,0,0,1-15.36-5.76,19.06,19.06,0,0,1-6.12-14.28q0-11.34,9-19.8a29.78,29.78,0,0,1,21.12-8.64c9.6,0,16.31,5.16,16.31,12.48a9.47,9.47,0,0,1-9.59,9.6c-4.92,0-8.4-3.36-8.4-7.8,0-.6.12-1.2.12-1.8a36.5,36.5,0,0,1,1.68-3.6C238.68,70.86,235.68,74.82,235.68,80.94Z" transform="translate(0 -13.02)"/><path class="cls-2" d="M308.75,87.66a22.47,22.47,0,0,0-.6,3.72,3.41,3.41,0,0,0,3.36,3.6,7,7,0,0,0,2.52-.6,7.78,7.78,0,0,1,2.76-.72,2.06,2.06,0,0,1,1.92,1.92,7,7,0,0,1-2.16,4.32,20,20,0,0,1-3.72,3.24,29.63,29.63,0,0,1-7.32,3.6,23.33,23.33,0,0,1-7.32,1.2c-5.76,0-9.48-3.12-9.84-8a36.21,36.21,0,0,1-7.68,5.28,20.87,20.87,0,0,1-10,2.76c-6.11,0-11-4.08-11-9.24a14.7,14.7,0,0,1,.24-2.28l4.44-21.36a9.52,9.52,0,0,0,.35-3,4.27,4.27,0,0,0-2.15-4l-.72-.36a36.25,36.25,0,0,1,4.92-3.48c3.84-2.28,7.79-3.6,11-3.6,4.33,0,7,2.4,7,6.6v1.2c0,.12-.12.24-.12.36L281.15,85.5c-.11,1-.36,1.92-.36,2.4A3,3,0,0,0,284,91c3.35,0,5.27-2.16,6.59-7.32l2-8.64c0-.12.12-.48.12-.6a7.64,7.64,0,0,0,.36-2.64,3.51,3.51,0,0,0-1.92-3.36,2.81,2.81,0,0,0-1.32-.72c5.28-4.2,9.6-6.36,13.92-7,.84,0,1.56-.12,2.4-.12,4.2,0,6.84,2.4,6.84,6.24a2.64,2.64,0,0,1-.12,1c0,.36-.12.6-.12,1Z" transform="translate(0 -13.02)"/><path class="cls-2" d="M339.83,73.5c8.16-8.64,15.72-13.2,22.08-13.2s11,4.32,11,10a9.66,9.66,0,0,1-9.48,9.84c-3.84,0-7.2-3-7.2-6a8.84,8.84,0,0,1,.6-2.76,3.6,3.6,0,0,1-1.32.72,12.92,12.92,0,0,0-2.88,2.16,17,17,0,0,0-2.76,3,46,46,0,0,0,6.84,12.24,24.27,24.27,0,0,0,4.32,4.32,9.21,9.21,0,0,0,6,1.92,8.5,8.5,0,0,0,1.68-.12,15.05,15.05,0,0,1,1.8-.24,2.1,2.1,0,0,1,2,2c-.12,1.92-1.8,4-5.28,6-4.92,3-9.48,4.56-13.32,4.56-3.48,0-6.24-1.08-9-4.44a47.12,47.12,0,0,1-3.24-4.8,52.69,52.69,0,0,1-3.24-6.24,36,36,0,0,1-1.8-4.32l-2.52,11c-1.08,4.92-4.2,7.56-9.36,7.56H321a10.7,10.7,0,0,0-4.21.48,25.85,25.85,0,0,0-3.71,2.4l13.8-63.72c0-.36.11-.6.11-1a17.33,17.33,0,0,0,.24-2.16,4.19,4.19,0,0,0-1.92-4,1,1,0,0,1-.48-.24A25,25,0,0,1,335,32.46a20.19,20.19,0,0,1,5.28-.84c4.44,0,7.32,2.52,7.32,6.24a2.64,2.64,0,0,1-.12,1c0,.36-.12.6-.12,1Z" transform="translate(0 -13.02)"/></g><g id="_Slice_" data-name="&lt;Slice&gt;"><rect class="cls-3" width="373" height="109"/></g></svg>