<svg id="katman_1" data-name="katman 1" xmlns="http://www.w3.org/2000/svg" viewBox="0 0 307.23 300"><defs><style>.cls-1{fill:#c19a67;fill-rule:evenodd;}.cls-2{fill:#231f20;}</style></defs><path class="cls-1" d="M136.48,118.93h30.88a4.26,4.26,0,0,1,4.24,4.24v53.51a4.26,4.26,0,0,1-4.24,4.24H136.48a4.26,4.26,0,0,1-4.24-4.24V123.17a4.26,4.26,0,0,1,4.24-4.24Zm14.13,17.24a4,4,0,0,0-4,4v19.62a4,4,0,0,0,4,4h2.65a4,4,0,0,0,4-4V140.12a4,4,0,0,0-4-4Z"/><path class="cls-2" d="M167.36,181.08H136.48a4.41,4.41,0,0,1-4.4-4.4V123.17a4.41,4.41,0,0,1,4.4-4.4h30.88a4.41,4.41,0,0,1,4.4,4.4v53.51A4.41,4.41,0,0,1,167.36,181.08Zm-30.88-62a4.08,4.08,0,0,0-4.08,4.07v53.51a4.08,4.08,0,0,0,4.08,4.07h30.88a4.08,4.08,0,0,0,4.08-4.07V123.17a4.08,4.08,0,0,0-4.08-4.07Zm16.78,44.76h-2.65a4.13,4.13,0,0,1-4.12-4.12V140.12a4.13,4.13,0,0,1,4.12-4.12h2.65a4.13,4.13,0,0,1,4.12,4.12v19.62A4.13,4.13,0,0,1,153.26,163.86Zm-2.65-27.53a3.8,3.8,0,0,0-3.8,3.79v19.62a3.81,3.81,0,0,0,3.8,3.8h2.65a3.8,3.8,0,0,0,3.79-3.8V140.12a3.79,3.79,0,0,0-3.79-3.79Z"/><path class="cls-1" d="M177.77,146.81V117.18a4.25,4.25,0,0,0-4.24-4.24H158.3v-9.49H191V132.2l8.1-28.75h14.25l-15.72,43.37H177.77Z"/><path class="cls-2" d="M197.74,147H177.6V117.18a4.08,4.08,0,0,0-4.07-4.08h-15.4v-9.81h33V131L199,103.29h14.61l-.08.22Zm-10.64-.32h10.41l15.61-43h-13.9l-8.38,29.77V103.61H158.46v9.16h15.07a4.42,4.42,0,0,1,4.4,4.41v29.46h9.17Z"/><path class="cls-1" d="M158.3,187.12h15.23a4.26,4.26,0,0,0,4.24-4.24V153H191v43.39H158.3Z"/><path class="cls-2" d="M191.16,196.59h-33V187h15.39a4.08,4.08,0,0,0,4.07-4.08v-30h13.56Zm-32.7-.32h32.38V153.21H177.93v29.67a4.41,4.41,0,0,1-4.4,4.4H158.46Z"/><path class="cls-1" d="M112.8,103.45h19.74v9.49h-2.27a4.24,4.24,0,0,0-4.24,4.24v65.7a4.25,4.25,0,0,0,4.24,4.24h24.94v9.31H112.8Z"/><path class="cls-2" d="M155.38,196.59H112.64v-93.3H132.7v9.81h-2.43a4.08,4.08,0,0,0-4.08,4.08v65.7a4.08,4.08,0,0,0,4.08,4.08h25.11ZM113,196.27h42.08v-9H130.27a4.41,4.41,0,0,1-4.41-4.4v-65.7a4.42,4.42,0,0,1,4.41-4.41h2.11v-9.16H113Z"/><path class="cls-1" d="M217.26,126.55a4.31,4.31,0,0,0-4.21,4.29v14.57a4.3,4.3,0,0,0,4.29,4.29h20.12v-9.27H223.81A1.42,1.42,0,0,1,222.4,139v-6.92a1.42,1.42,0,0,1,1.41-1.42h13.65v-4.12h0v-4.09H223.81a1.41,1.41,0,0,1-1.41-1.41v-6.93a1.41,1.41,0,0,1,1.41-1.41h13.65v-9.32H217.34a4.31,4.31,0,0,0-4.29,4.3v14.57A4.31,4.31,0,0,0,217.26,126.55Z"/><path class="cls-2" d="M237.62,149.86H217.34a4.45,4.45,0,0,1-4.45-4.45V130.84a4.48,4.48,0,0,1,3.26-4.29,4.5,4.5,0,0,1-3.26-4.29V107.69a4.46,4.46,0,0,1,4.45-4.46h20.28v9.64H223.81a1.25,1.25,0,0,0-1.25,1.25v6.93a1.25,1.25,0,0,0,1.25,1.25h13.81v8.54H223.81a1.25,1.25,0,0,0-1.25,1.25V139a1.25,1.25,0,0,0,1.25,1.25h13.81Zm-20.28-46.3a4.13,4.13,0,0,0-4.12,4.13v14.57a4.15,4.15,0,0,0,4,4.13v.32a4.15,4.15,0,0,0-4,4.13v14.57a4.13,4.13,0,0,0,4.12,4.13h20v-8.95H223.81a1.58,1.58,0,0,1-1.58-1.58v-6.92a1.58,1.58,0,0,1,1.58-1.58H237.3v-7.89H223.81a1.58,1.58,0,0,1-1.58-1.57v-6.93a1.58,1.58,0,0,1,1.58-1.58H237.3v-9Z"/><path class="cls-1" d="M253.59,153H241.38v31.69a3.69,3.69,0,0,1-3.67,3.68h-3.27a3.7,3.7,0,0,1-3.68-3.68V153H218.54v39.15a4.26,4.26,0,0,0,4.24,4.24h26.57a4.26,4.26,0,0,0,4.24-4.24Z"/><path class="cls-2" d="M249.35,196.59H222.78a4.41,4.41,0,0,1-4.4-4.4V152.88h12.54v31.85a3.52,3.52,0,0,0,3.52,3.51h3.27a3.51,3.51,0,0,0,3.51-3.51V152.88h12.53v39.31A4.41,4.41,0,0,1,249.35,196.59Zm-30.64-43.38v39a4.08,4.08,0,0,0,4.07,4.08h26.57a4.08,4.08,0,0,0,4.07-4.08v-39H241.55v31.52a3.85,3.85,0,0,1-3.84,3.84h-3.27a3.84,3.84,0,0,1-3.84-3.84V153.21Z"/><path class="cls-1" d="M260.73,196.43H274v-30a1.68,1.68,0,0,1,1.67-1.68h0a1.68,1.68,0,0,1,1.68,1.68v30h13.18v-30a1.68,1.68,0,0,1,1.67-1.68h0a1.68,1.68,0,0,1,1.68,1.68v30h13.23V156.72A3.69,3.69,0,0,0,303.4,153H287.58a3.69,3.69,0,0,0-3.68,3.68,3.69,3.69,0,0,0-3.67-3.68H264.4a3.69,3.69,0,0,0-3.67,3.68Z"/><path class="cls-2" d="M307.23,196.59H293.68V166.41a1.52,1.52,0,1,0-3,0v30.18h-13.5V166.41a1.52,1.52,0,1,0-3,0v30.18H260.57V156.72a3.84,3.84,0,0,1,3.83-3.84h15.83a3.84,3.84,0,0,1,3.67,2.73,3.84,3.84,0,0,1,3.68-2.73H303.4a3.84,3.84,0,0,1,3.83,3.84ZM294,196.27h12.91V156.72a3.51,3.51,0,0,0-3.51-3.51H287.58a3.52,3.52,0,0,0-3.52,3.51h-.32a3.51,3.51,0,0,0-3.51-3.51H264.4a3.51,3.51,0,0,0-3.51,3.51v39.55h12.9V166.41a1.84,1.84,0,1,1,3.68,0v29.86h12.85V166.41a1.84,1.84,0,1,1,3.68,0Z"/><polygon class="cls-1" points="196.78 185.96 201.05 196.43 215.85 196.43 204.43 172.72 215.79 153.04 202.27 153.04 191.19 172.29 196.76 186 196.78 185.96"/><path class="cls-2" d="M216.11,196.59H200.94l0-.1-4.15-10.16,0,0L191,172.27l0-.06,11.13-19.33h13.9l-11.47,19.85Zm-15-.32h14.43l-11.35-23.55,11.27-19.51H202.37l-11,19.09,5.42,13.34.14.26Z"/><path class="cls-1" d="M149.56.16h.9c16.73,0,29.17,15.81,26.12,30.11l-12,56.21A64.93,64.93,0,0,0,150,84.83a65.87,65.87,0,0,0-14.49,1.62L123.43,30.26C120.36,16,133,.16,149.56.16Z"/><path class="cls-2" d="M164.72,86.67l-.16,0a65.75,65.75,0,0,0-29,0l-.16,0,0-.16-12.08-56.2c-1.45-6.76.5-14.08,5.35-20.08A26.91,26.91,0,0,1,149.56,0h.9a26.89,26.89,0,0,1,20.92,10.14c4.86,6,6.81,13.35,5.36,20.16Zm-14.72-2a65.62,65.62,0,0,1,14.47,1.61l11.95-56c1.43-6.71-.49-14-5.29-19.88a26.55,26.55,0,0,0-20.67-10h-.9a26.58,26.58,0,0,0-20.69,10.09c-4.78,5.92-6.71,13.14-5.28,19.8l12,56A65.83,65.83,0,0,1,150,84.67Z"/><path class="cls-1" d="M224.34,19.9l.78.45c14.5,8.35,17.4,28.25,7.63,39.12l-38.43,42.76a65.17,65.17,0,0,0-25.19-14.54L186.69,33C191.15,19,210,11.64,224.34,19.9Z"/><path class="cls-2" d="M194.33,102.46l-.13-.11a65.19,65.19,0,0,0-25.12-14.5l-.15,0,0-.16,17.55-54.73C188.64,26.33,194,21,201.18,18.17a26.92,26.92,0,0,1,23.24,1.59h0l.78.45a26.88,26.88,0,0,1,13.08,19.23c1.22,7.62-.75,15-5.41,20.14Zm-25-14.88a65.72,65.72,0,0,1,25,14.42l38.33-42.64c4.59-5.1,6.53-12.35,5.33-19.87a26.56,26.56,0,0,0-12.92-19l-.79-.45a26.55,26.55,0,0,0-22.95-1.56c-7.11,2.74-12.38,8-14.46,14.53Z"/><path class="cls-1" d="M74.78,20.41l.78-.45c14.49-8.36,33.16-.87,37.66,13l17.69,54.68a65.13,65.13,0,0,0-25.19,14.52L67.18,59.53C57.38,48.69,60.42,28.69,74.78,20.41Z"/><path class="cls-2" d="M105.71,102.43,67.06,59.64c-4.64-5.13-6.61-12.44-5.4-20.06a26.93,26.93,0,0,1,13-19.31l.78-.45a26.92,26.92,0,0,1,23.2-1.66c7.2,2.77,12.56,8.16,14.71,14.78l17.74,54.85-.16,0a65.28,65.28,0,0,0-25.13,14.49ZM74.86,20.55A26.58,26.58,0,0,0,62,39.63c-1.19,7.52.75,14.74,5.32,19.79L105.73,102a65.62,65.62,0,0,1,25-14.4L113.07,33.05C111,26.51,105.66,21.2,98.55,18.46a26.56,26.56,0,0,0-22.91,1.65Z"/><path class="cls-1" d="M20.11,75.31l.45-.78C28.94,60.05,48.85,57.2,59.7,67l42.65,38.54A65.22,65.22,0,0,0,87.74,130.7L33.06,113C19.16,108.49,11.8,89.65,20.11,75.31Z"/><path class="cls-2" d="M87.85,130.9l-.16-.05L33,113.15c-6.58-2.13-11.93-7.48-14.7-14.69A26.89,26.89,0,0,1,20,75.23l.45-.78a26.86,26.86,0,0,1,19.26-13c7.62-1.2,15,.79,20.13,5.46l42.77,38.66-.11.13A65.25,65.25,0,0,0,87.9,130.75ZM20.25,75.39a26.57,26.57,0,0,0-1.63,23c2.73,7.11,8,12.39,14.49,14.49l54.53,17.65a65.68,65.68,0,0,1,14.48-24.93L59.59,67.13c-5.1-4.61-12.33-6.57-19.86-5.39a26.57,26.57,0,0,0-19,12.87Z"/><path class="cls-1" d="M.16,150.17v-.9c0-16.73,15.87-29.14,30.15-26.07L86.5,135.29a65.87,65.87,0,0,0-.07,29.08l-56.22,12C15.91,179.39.13,166.74.16,150.17Z"/><path class="cls-2" d="M25.82,177a25.06,25.06,0,0,1-15.65-5.84A26.94,26.94,0,0,1,0,150.17v-.9a26.94,26.94,0,0,1,10.18-20.91c6-4.84,13.36-6.78,20.17-5.32L86.7,135.17l0,.16a65.56,65.56,0,0,0-.07,29l0,.16-.16,0-56.22,12A21.12,21.12,0,0,1,25.82,177ZM.33,150.17a26.56,26.56,0,0,0,10.05,20.7c5.92,4.8,13.13,6.74,19.79,5.32l56.06-11.94A66.11,66.11,0,0,1,84.67,150a65.31,65.31,0,0,1,1.64-14.58l-56-12.06c-6.71-1.44-14,.47-19.9,5.26a26.56,26.56,0,0,0-10,20.65Z"/><path class="cls-1" d="M20.28,225l-.45-.78C11.5,209.7,19,191,32.93,186.57L87.64,169a65.2,65.2,0,0,0,14.48,25.23L59.38,232.66C48.52,242.44,28.53,239.36,20.28,225Z"/><path class="cls-2" d="M43.82,238.5a27.58,27.58,0,0,1-4.4-.36,26.89,26.89,0,0,1-19.28-13.07l-.45-.78a26.88,26.88,0,0,1-1.63-23.2c2.79-7.2,8.19-12.55,14.82-14.68l54.87-17.64,0,.16a65.19,65.19,0,0,0,14.44,25.15l.11.13-.12.11L59.49,232.78A23.21,23.21,0,0,1,43.82,238.5Zm43.72-69.32L33,186.72c-6.54,2.1-11.86,7.38-14.61,14.49A26.54,26.54,0,0,0,20,224.13l.45.78a26.59,26.59,0,0,0,19,12.91c7.52,1.2,14.74-.72,19.8-5.28l42.62-38.36A65.53,65.53,0,0,1,87.54,169.18Z"/><path class="cls-1" d="M75.07,279.76l-.77-.45C59.83,270.89,57,251,66.84,240.15l38.63-42.58a65,65,0,0,0,25.12,14.65l-17.81,54.65C108.26,280.77,89.4,288.09,75.07,279.76Z"/><path class="cls-2" d="M88.26,283.45A26.32,26.32,0,0,1,75,279.9l-.77-.45a26.89,26.89,0,0,1-13-19.29c-1.18-7.63.82-15,5.5-20.12l38.74-42.7.12.11a65.29,65.29,0,0,0,25.06,14.62l.15.05-17.85,54.8c-2.14,6.57-7.51,11.92-14.72,14.67A27.75,27.75,0,0,1,88.26,283.45Zm-13.1-3.83a26.59,26.59,0,0,0,23,1.67c7.12-2.72,12.41-8,14.52-14.47l17.75-54.49a65.53,65.53,0,0,1-24.9-14.53L67,240.26c-4.61,5.09-6.59,12.32-5.42,19.85a26.55,26.55,0,0,0,12.84,19.06Z"/><path class="cls-1" d="M149.9,299.84H149c-16.73-.06-29.11-15.91-26-30.19l12.19-56.17a65.89,65.89,0,0,0,29.08.13l11.87,56.24C179.15,284.14,166.47,299.9,149.9,299.84Z"/><path class="cls-2" d="M150,300h-1a26.91,26.91,0,0,1-20.89-10.22c-4.83-6-6.76-13.37-5.28-20.18l12.22-56.33.17,0a65.7,65.7,0,0,0,29,.13l.16,0,11.91,56.41c1.43,6.76-.54,14.07-5.42,20.05A26.89,26.89,0,0,1,150,300Zm-14.7-86.33-12.15,56c-1.46,6.71.44,14,5.21,19.91A26.59,26.59,0,0,0,149,299.67h1a26.58,26.58,0,0,0,20.62-10c4.81-5.91,6.76-13.12,5.35-19.79l-11.84-56.08A66.14,66.14,0,0,1,135.3,213.67Z"/><path class="cls-1" d="M224.76,279.86l-.79.44c-14.53,8.31-33.17.76-37.62-13.16l-17.49-54.75A65,65,0,0,0,194.11,198l38.39,42.81C242.26,251.65,239.14,271.63,224.76,279.86Z"/><path class="cls-2" d="M210.89,283.93a27.72,27.72,0,0,1-10-1.9c-7.19-2.8-12.53-8.21-14.65-14.84l-17.54-54.91.15-.05A65.16,65.16,0,0,0,194,197.84l.12-.11,38.5,42.93c4.61,5.14,6.55,12.46,5.32,20.08A26.92,26.92,0,0,1,224.84,280l-.78.45A26.53,26.53,0,0,1,210.89,283.93ZM169.07,212.5l17.44,54.59c2.09,6.54,7.36,11.87,14.46,14.64a26.54,26.54,0,0,0,22.92-1.57l.78-.44a26.58,26.58,0,0,0,13-19c1.22-7.52-.7-14.74-5.24-19.81L194.1,198.19A65.83,65.83,0,0,1,169.07,212.5Z"/></svg>