<svg id="Layer_1" data-name="Layer 1" xmlns="http://www.w3.org/2000/svg" viewBox="0 0 455.82 96.29"><defs><style>.cls-1{fill:#1a4a9a;}.cls-2{fill:#90c856;}</style></defs><polygon class="cls-1" points="202.76 30.47 202.76 75.95 195.3 75.95 195.3 44.8 181.43 75.95 176.26 75.95 162.32 44.8 162.32 75.95 154.86 75.95 154.86 30.47 162.91 30.47 178.88 66.14 194.78 30.47 202.76 30.47"/><path class="cls-1" d="M323.46,409.06H295.9a10,10,0,0,0,3.21,6.94,10.16,10.16,0,0,0,7.07,2.62q6,0,8.51-5h8.05a16.29,16.29,0,0,1-5.93,8.15,17.39,17.39,0,0,1-10.63,3.17,18.4,18.4,0,0,1-9.26-2.32,16.43,16.43,0,0,1-6.41-6.55,19.92,19.92,0,0,1-2.33-9.78,20.46,20.46,0,0,1,2.26-9.78,15.9,15.9,0,0,1,6.35-6.52,19,19,0,0,1,9.39-2.29,18.42,18.42,0,0,1,9.1,2.23,15.63,15.63,0,0,1,6.21,6.25,18.74,18.74,0,0,1,2.23,9.26,23.85,23.85,0,0,1-.26,3.66m-7.53-6a8.47,8.47,0,0,0-2.94-6.61,10.55,10.55,0,0,0-7.14-2.49,9.57,9.57,0,0,0-6.61,2.46A10.25,10.25,0,0,0,296,403Z" transform="translate(-78.09 -348.36)"/><path class="cls-1" d="M330.82,396.5a16.47,16.47,0,0,1,14.82-8.84,17,17,0,0,1,7,1.54,14.29,14.29,0,0,1,5.46,4.09V375.88h7.53v48.43h-7.53v-5.43A14.05,14.05,0,0,1,353,423.2a15.76,15.76,0,0,1-7.42,1.7,16.1,16.1,0,0,1-8.61-2.39,16.81,16.81,0,0,1-6.15-6.67,20.5,20.5,0,0,1-2.26-9.72,19.9,19.9,0,0,1,2.26-9.62m25.72,3.27a10.85,10.85,0,0,0-4-4.19,10.54,10.54,0,0,0-5.36-1.44,10.61,10.61,0,0,0-9.4,5.53,12.93,12.93,0,0,0-1.53,6.45,13.5,13.5,0,0,0,1.53,6.54,10.86,10.86,0,0,0,4.06,4.29,10.56,10.56,0,0,0,10.7,0,10.8,10.8,0,0,0,4-4.22,13.33,13.33,0,0,0,1.53-6.51,13.1,13.1,0,0,0-1.53-6.48" transform="translate(-78.09 -348.36)"/><rect class="cls-1" x="297.32" y="39.89" width="7.46" height="36.06"/><path class="cls-2" d="M399.43,423.16a13.52,13.52,0,0,1-5.76-4.54,11.63,11.63,0,0,1-2.09-6.88h8a7.23,7.23,0,0,0,2.33,4.85,8.24,8.24,0,0,0,5.79,1.9,8.94,8.94,0,0,0,6-1.87,6.06,6.06,0,0,0,2.16-4.81,5.27,5.27,0,0,0-1.34-3.73,9.12,9.12,0,0,0-3.34-2.23,51.37,51.37,0,0,0-5.53-1.7,50.39,50.39,0,0,1-7.23-2.39,11.88,11.88,0,0,1-4.75-3.76,10.87,10.87,0,0,1-2-6.81,12.11,12.11,0,0,1,2-6.87,12.5,12.5,0,0,1,5.5-4.51,19.9,19.9,0,0,1,8.18-1.57,17.07,17.07,0,0,1,10.83,3.3,12.25,12.25,0,0,1,4.68,9.07h-8.25a6,6,0,0,0-2.35-4.26,8.71,8.71,0,0,0-5.7-1.77,8.06,8.06,0,0,0-5.23,1.64,5.68,5.68,0,0,0-2,4.71,4.79,4.79,0,0,0,1.27,3.44,9.15,9.15,0,0,0,3.24,2.13,51.08,51.08,0,0,0,5.37,1.7,56.21,56.21,0,0,1,7.36,2.48,12.27,12.27,0,0,1,4.84,3.83,11,11,0,0,1,2,6.91,12.43,12.43,0,0,1-1.86,6.54,13.48,13.48,0,0,1-5.44,4.94,17.81,17.81,0,0,1-8.41,1.87,20.36,20.36,0,0,1-8.24-1.61" transform="translate(-78.09 -348.36)"/><path class="cls-2" d="M440.92,394.34v20a3.84,3.84,0,0,0,.95,2.91,4.71,4.71,0,0,0,3.24.88h4.58v6.22H443.8c-3.36,0-5.93-.78-7.72-2.36s-2.68-4.12-2.68-7.65v-20h-4.26v-6.09h4.26v-9h7.52v9h8.77v6.09Z" transform="translate(-78.09 -348.36)"/><path class="cls-2" d="M489.35,409.06H461.8a9.94,9.94,0,0,0,10.27,9.56q6,0,8.51-5h8.05a16.33,16.33,0,0,1-5.92,8.15,17.44,17.44,0,0,1-10.64,3.17,18.43,18.43,0,0,1-9.26-2.32A16.56,16.56,0,0,1,456.4,416a19.92,19.92,0,0,1-2.32-9.78,20.46,20.46,0,0,1,2.25-9.78,16,16,0,0,1,6.35-6.52,19,19,0,0,1,9.39-2.29,18.39,18.39,0,0,1,9.1,2.23,15.72,15.72,0,0,1,6.22,6.25,18.85,18.85,0,0,1,2.22,9.26,23.85,23.85,0,0,1-.26,3.66m-7.53-6a8.47,8.47,0,0,0-2.94-6.61,10.52,10.52,0,0,0-7.13-2.49,9.55,9.55,0,0,0-6.61,2.46,10.22,10.22,0,0,0-3.28,6.64Z" transform="translate(-78.09 -348.36)"/><path class="cls-2" d="M509.57,389.36a15.85,15.85,0,0,1,7.4-1.7,16.38,16.38,0,0,1,14.72,8.84,20.23,20.23,0,0,1,2.23,9.62,20.84,20.84,0,0,1-2.23,9.72,16.6,16.6,0,0,1-6.12,6.67,16.13,16.13,0,0,1-8.6,2.39,15.65,15.65,0,0,1-7.33-1.67,16.34,16.34,0,0,1-5.24-4.16v22.39h-7.46V388.25h7.46v5.3a15.27,15.27,0,0,1,5.17-4.19m15.22,10.31a10.58,10.58,0,0,0-4.06-4.12,10.88,10.88,0,0,0-5.4-1.41,10.56,10.56,0,0,0-5.33,1.44,10.71,10.71,0,0,0-4.06,4.19,13,13,0,0,0-1.54,6.48,13.22,13.22,0,0,0,1.54,6.51,10.65,10.65,0,0,0,9.39,5.66,10.54,10.54,0,0,0,5.4-1.47,10.93,10.93,0,0,0,4.06-4.29,13.47,13.47,0,0,0,1.53-6.54,12.93,12.93,0,0,0-1.53-6.45" transform="translate(-78.09 -348.36)"/><path class="cls-1" d="M384.45,376.9a5.06,5.06,0,1,1-5.06-5.06,5.05,5.05,0,0,1,5.06,5.06" transform="translate(-78.09 -348.36)"/><polygon class="cls-2" points="73.73 78.52 21.86 55.51 21.86 71.07 71.49 96.28 121.29 71.78 121.29 55.76 73.73 78.52"/><path class="cls-1" d="M87.54,394.94l64.23,28.49,73.8-35.32c-8.52-4.49-48.34-25.49-65.63-34.67h0l-1.77-.94-1.49-.8,0,0-6.26-3.32-4.18,2.24a12.88,12.88,0,0,0-2,1c-.6.37-1.21.7-1.82,1.05-.3.17-.59.35-.89.51-2.75,1.49-5.59,2.83-8.37,4.27-14.9,7.72-29.75,15.53-44.72,23.1l.16-.19L78.1,385.78s.05,3.51,0,5.62a14.51,14.51,0,0,0,0,1.49h0c.28,13.58.05,27.16.11,40.74,0,5.63,1.75,8.36,4.94,8.27,2.9-.08,4.31-2.5,4.37-7.86.07-6.27,0-12.53,0-18.8V396.87h0v-1.93Zm41.55-19.41h12.75V362.77h17.25v12.76h12.76v17.25H159.09v12.75H141.84V392.78H129.09Z" transform="translate(-78.09 -348.36)"/></svg>