<svg id="Layer_1" data-name="Layer 1" xmlns="http://www.w3.org/2000/svg" viewBox="0 0 966.37 231.96"><defs><style>.cls-1{fill:#005aaa;}.cls-2{fill:#231f20;fill-rule:evenodd;}.cls-3{fill:#67ae3e;}.cls-4{fill:#00a5e4;}.cls-5{fill:#ed1b34;}</style></defs><path class="cls-1" d="M737.37,422.06H789c.14-1.46.22-2.81.23-4.28v-.5a47.94,47.94,0,0,0-47.92-47.79h-.35a47.43,47.43,0,0,0-35.83,16.59A48.08,48.08,0,0,0,669,369.49h-.4a47.92,47.92,0,0,0-42.8,26.71,48.3,48.3,0,0,0-42.94-26.71h-.3a47.93,47.93,0,0,0-47.79,47.92,24.07,24.07,0,1,1-10.14-19.52,43,43,0,0,1,11.93-21,47.82,47.82,0,0,0-25.29-7.4h-.57a47.94,47.94,0,0,0-47.81,47.85v.13a48,48,0,0,0,83.92,31.65,47.67,47.67,0,0,0,35.88,16.24,50.53,50.53,0,0,0,12.83-1.69V437.54a23.52,23.52,0,0,1-12.83,3.81,24,24,0,1,1,23.87-23.94v49.18l14.28-9.3v55.19c3.68-1.79,23.24-16.37,24-16.65V417.4a24,24,0,1,1,24,24,23.42,23.42,0,0,1-12.84-3.81v26.14a51.06,51.06,0,0,0,12.84,1.68,48.08,48.08,0,0,0,36.34-16.64,47.74,47.74,0,0,0,81.36-15.55H759.25a24.2,24.2,0,0,1-18.12,8.18,24,24,0,1,1,23-30.41H744.76Z" transform="translate(177.18 -280.52)"/><path class="cls-2" d="M428.31,462.12h0l-20.84-36.55c11.39-3.32,18.8-12.78,18.8-24.53,0-20.44-12.52-29.9-33-29.9h-45.5v91h22.76V429.4H385l17.89,32.72Zm-57.76-49.59h20.82c7.29-.11,12.15-3.82,12.15-12.25s-4.86-12.15-12.15-12.28H370.55Zm-89.67-41.39H304.4l34.38,91H314.36l-4.59-14.32H276.14l-4.6,14.32H247.27Zm23.38,59.8L293,393.38h-.25l-11.25,37.56Zm-77.32-29.51c-3.2-8.45-11-13.68-18.92-13.68-12.53,0-22.49,8.44-22.49,28.87,0,13.3,5.36,28.89,23.25,28.89,6.14,0,15.08-4.61,18.66-12.78l18,8.69c-7.81,14.18-21.36,23.26-36.7,23.26-29,0-46-22.49-46-48.06s15.85-48,44.22-48c17.9,0,29.65,8.69,38.1,23.77ZM106.48,464.68h.15c29,0,46-22.52,46-48.06s-17-48-46-48-46,22.49-46,48S77.51,464.64,106.48,464.68Zm.08-76.93c-13.3,0-23.27,8.44-23.27,28.87,0,13.3,5.37,28.89,23.27,28.89,16.87,0,23.26-14.82,23.26-28.89C129.82,402.31,123.43,387.75,106.56,387.75ZM-14.73,434.9c7.94,7.15,15.47,11.37,26.33,11.37,6,0,17-2.54,17-10.48,0-4.59-3.46-6.89-10.23-8L-.53,424.68c-16.87-2.69-26.07-11.63-26.07-25,0-22,17.75-31.05,37.18-31.05a54,54,0,0,1,40.13,17.49l-17.26,12.4A31.44,31.44,0,0,0,9.05,387c-5.24,0-12.91,3.32-12.91,9.2,0,4.85,4,7.28,12.65,8.69l8.69,1.4c18.15,2.94,33.11,8.56,33.11,25.94,0,27.34-24.68,32.46-41.67,32.46-15.46,0-30-5-42.38-18.53Z" transform="translate(177.18 -280.52)"/><path class="cls-3" d="M-80.12,347.32C-68.77,357-63,371.81-63,385.5c0,49.41-56.06,55.39-56.06,74.3a13.49,13.49,0,0,0,.68,4.77c-8.91-3.34-15.72-13.58-15.72-23.18,0-30.23,46.35-38,54-94.07" transform="translate(177.18 -280.52)"/><path class="cls-4" d="M-163.51,296.2a23.39,23.39,0,0,1,2.73,10.22c0,17.35-16.4,24-16.4,41.59a22.31,22.31,0,0,0,10.93,19.08,25,25,0,0,1,.69-4.09c3.85-12.25,21.87-25.82,21.87-45,0-11.53-9.57-21-19.82-21.81" transform="translate(177.18 -280.52)"/><path class="cls-5" d="M-135.48,280.52c22.79,5.54,42.37,28.94,42.37,56.58,0,57.79-54.68,68.33-54.68,102.25a30.53,30.53,0,0,0,1.37,9.55c-13.71-1.94-25.29-17.83-25.29-36.13,0-47,41.07-56.11,41.07-105,0-12.22-4.83-27.21-4.85-27.27Z" transform="translate(177.18 -280.52)"/></svg>